<svg id="icons" enable-background="new 0 0 64 64" height="512" viewBox="0 0 64 64" width="512" xmlns="http://www.w3.org/2000/svg"><g><g><path d="m16 2.5c-8.28 0-15 6.71-15 15 0 8.28 6.72 15 15 15 8.29 0 15-6.72 15-15 0-8.29-6.71-15-15-15z" fill="#545c66"/></g><g><path d="m33 34.49h29.99v18h-29.99z" fill="#a0d468"/></g><g><path d="m33 55.49h30v3h-30z" fill="#8cc152"/></g><g><path d="m62.99 34.49v2.99c-1.65 0-2.99-1.341-2.99-2.99z" fill="#8cc152"/></g><g><path d="m62.99 52.485h-2.99c0-1.65 1.341-2.99 2.99-2.99z" fill="#8cc152"/></g><g><path d="m33 58.49h30v3.01h-30z" fill="#8cc152"/></g><g><path d="m33 49.49c1.66 0 3 1.34 3 3h-3z" fill="#8cc152"/></g><g><path d="m33 34.49h3c0 1.66-1.35 3-3 3z" fill="#8cc152"/></g><g><path d="m48 39.49c2.2 0 3.99 1.79 3.99 4 0 2.2-1.79 4-3.99 4-2.21 0-4-1.8-4-4 0-2.21 1.79-4 4-4z" fill="#8cc152"/></g><g><path d="m63 52.49v3h-30v-3h3 24z" fill="#8cc152"/></g><g><path d="m8.99 22.51h4v3h-4z" fill="#656d78"/></g><g><path d="m23 18.51v4h-4-6.01-4v-4h1 12.01z" fill="#ffce54"/></g><g><path d="m18 10.5c0 1.11-.9 2-2 2-1.11 0-2-.89-2-2 0-1.1 2-3 2-3s2 1.9 2 3z" fill="#5d9cec"/></g><g><path d="m19 22.51h4v3h-4z" fill="#656d78"/></g><g><path d="m22 14.5v4.01h-12.01v-4.01c0-1.09.899-2 2-2h4.01 4c1.1 0 2 .91 2 2z" fill="#5d9cec"/></g></g><g><g><g><g><path d="m63.02 53.486c-.005 0-.012 0-.02 0h-30.002c-.553 0-1-.447-1-1v-17.994c0-.553.447-1 1-1h29.996c.552 0 1 .447 1 1l.006 17.794c.013.064.02.132.02.2 0 .553-.448 1-1 1zm-29.022-2h28.002l-.006-15.994h-27.996z"/></g><g><path d="m47.996 48.486c-2.757 0-5-2.243-5-5s2.243-5 5-5c2.756 0 4.998 2.243 4.998 5s-2.242 5-4.998 5zm0-8c-1.654 0-3 1.346-3 3s1.346 3 3 3c1.653 0 2.998-1.346 2.998-3s-1.345-3-2.998-3z"/></g><g><path d="m62.994 38.484c-2.202 0-3.994-1.793-3.994-3.996 0-.553.447-1 1-1s1 .447 1 1c0 1.101.895 1.996 1.994 1.996.553 0 1 .447 1 1s-.447 1-1 1z"/></g><g><path d="m60 53.486c-.553 0-1-.447-1-1 0-2.203 1.792-3.996 3.994-3.996.553 0 1 .447 1 1s-.447 1-1 1c-1.1 0-1.994.896-1.994 1.996 0 .553-.447 1-1 1z"/></g><g><path d="m35.996 53.486c-.553 0-1-.447-1-1 0-1.101-.896-1.996-1.996-1.996-.553 0-1-.447-1-1s.447-1 1-1c2.203 0 3.996 1.793 3.996 3.996 0 .553-.447 1-1 1z"/></g><g><path d="m32.996 38.488c-.553 0-1-.447-1-1s.447-1 1-1c1.104 0 2.002-.897 2.002-2 0-.553.447-1 1-1s1 .447 1 1c0 2.206-1.795 4-4.002 4z"/></g></g><g><path d="m32.998 62.502c-.553 0-1-.447-1-1v-9.016c0-.553.447-1 1-1s1 .447 1 1v9.016c0 .553-.447 1-1 1z"/></g><g><path d="m63 56.488h-30.002c-.553 0-1-.447-1-1s.447-1 1-1h30.002c.553 0 1 .447 1 1s-.447 1-1 1z"/></g><g><path d="m63 59.488h-30.002c-.553 0-1-.447-1-1s.447-1 1-1h30.002c.553 0 1 .447 1 1s-.447 1-1 1z"/></g><g><path d="m63 62.496h-30.002c-.553 0-1-.447-1-1s.447-1 1-1h30.002c.553 0 1 .447 1 1s-.447 1-1 1z"/></g><g><path d="m63 62.502c-.553 0-1-.447-1-1v-9.016c0-.553.447-1 1-1s1 .447 1 1v9.016c0 .553-.447 1-1 1z"/></g><g><path d="m47.998 31.492c-.553 0-1-.447-1-1v-13c0-.553.447-1 1-1s1 .447 1 1v13c0 .553-.447 1-1 1z"/></g><g><path d="m47.998 18.492h-12.998c-.553 0-1-.447-1-1s.447-1 1-1h12.998c.553 0 1 .447 1 1s-.447 1-1 1z"/></g><g><path d="m37 20.494c-.256 0-.512-.098-.707-.293l-2-2.002c-.391-.391-.391-1.024 0-1.414.391-.391 1.023-.391 1.414 0l2 2.002c.391.391.391 1.024 0 1.414-.195.195-.451.293-.707.293z"/></g><g><path d="m35 18.492c-.256 0-.512-.098-.707-.293-.391-.391-.391-1.024 0-1.414l2-1.998c.391-.391 1.023-.391 1.414 0s.391 1.024 0 1.414l-2 1.998c-.195.196-.451.293-.707.293z"/></g><g><path d="m16 50.498c-.553 0-1-.447-1-1v-13c0-.553.447-1 1-1s1 .447 1 1v13c0 .553-.447 1-1 1z"/></g><g><path d="m28.998 50.498h-12.998c-.553 0-1-.447-1-1s.447-1 1-1h12.998c.553 0 1 .447 1 1s-.447 1-1 1z"/></g><g><path d="m28.998 50.498c-.256 0-.512-.098-.707-.293l-2-2.002c-.391-.391-.391-1.024 0-1.414.391-.391 1.023-.391 1.414 0l2 2.002c.391.391.391 1.024 0 1.414-.195.195-.451.293-.707.293z"/></g><g><path d="m26.998 52.496c-.256 0-.512-.098-.707-.293-.391-.391-.391-1.024 0-1.414l2-1.998c.391-.391 1.023-.391 1.414 0s.391 1.024 0 1.414l-2 1.998c-.195.195-.451.293-.707.293z"/></g><g><path d="m16 33.498c-8.822 0-16-7.178-16-16s7.178-16 16-16 16 7.178 16 16-7.178 16-16 16zm0-30c-7.72 0-14 6.28-14 14s6.28 14 14 14 14-6.28 14-14-6.28-14-14-14z"/></g></g><g><g><g><path d="m22.996 23.507h-14.002c-.553 0-1-.447-1-1v-4c0-.553.447-1 1-1h14.002c.553 0 1 .447 1 1v4c0 .553-.447 1-1 1zm-13.002-2h12.002v-2h-12.002z"/></g><g><path d="m12.994 26.507h-4.001c-.553 0-1-.447-1-1v-3c0-.553.447-1 1-1h4.001c.553 0 1 .447 1 1v3c0 .553-.447 1-1 1zm-3.001-2h2.001v-1h-2.001z"/></g><g><path d="m22.998 26.507h-4.001c-.553 0-1-.447-1-1v-3c0-.553.447-1 1-1h4.001c.553 0 1 .447 1 1v3c0 .553-.447 1-1 1zm-3.001-2h2.001v-1h-2.001z"/></g><g><path d="m21.997 15.505c-.553 0-1-.447-1-1 0-.552-.448-1-1-1h-8.003c-.552 0-1 .448-1 1 0 .553-.447 1-1 1s-1-.447-1-1c0-1.654 1.346-3 3-3h8.003c1.654 0 3 1.346 3 3 0 .553-.447 1-1 1z"/></g><g><path d="m9.994 19.507c-.553 0-1-.447-1-1v-4.002c0-.553.447-1 1-1s1 .447 1 1v4.002c0 .553-.447 1-1 1z"/></g><g><path d="m21.997 19.507c-.553 0-1-.447-1-1v-4.002c0-.553.447-1 1-1s1 .447 1 1v4.002c0 .553-.447 1-1 1z"/></g><g><path d="m12.024 21.507c-.553 0-1.005-.447-1.005-1s.442-1 .994-1h.011c.552 0 1 .447 1 1s-.448 1-1 1z"/></g><g><path d="m20.027 21.507c-.553 0-1.005-.447-1.005-1s.442-1 .994-1h.011c.552 0 1 .447 1 1s-.448 1-1 1z"/></g></g><g><path d="m15.995 13.505c-1.654 0-3-1.346-3-3 0-1.424 1.77-3.212 2.312-3.727.387-.365.99-.365 1.377 0 .542.515 2.312 2.303 2.312 3.727-.001 1.654-1.347 3-3.001 3zm0-4.552c-.558.645-.987 1.293-1 1.554 0 .55.448.998 1 .998s1-.448 1-1c-.013-.26-.442-.907-1-1.552z"/></g></g></g></svg>