<svg id="icons" enable-background="new 0 0 64 64" height="512" viewBox="0 0 64 64" width="512" xmlns="http://www.w3.org/2000/svg"><g><g><g><path d="m60.33 50.5-2.66-4-4.67-7h-42l-2.67 4-7.33 11h8.85 44.3 8.85z" fill="#545c66"/></g><g><path d="m29.9 44.5c-1.2-1.221-2.801-2.939-4.471-5-4.029-4.99-8.429-12.04-8.429-19 0-8.28 6.71-15 15-15s15 6.72 15 15c0 6.96-4.4 14.01-8.43 19-1.67 2.061-3.271 3.779-4.471 5h-.01c-1.26 1.27-2.09 2-2.09 2s-.829-.73-2.099-2z" fill="#545c66"/></g><g><path d="m60.33 50.5h-5.99-.01l-4-4h7.34z" fill="#545c66"/></g><g><path d="m38.1 48.5 4.33-4 5.44 9h-23.74l-4-4z" fill="#545c66"/></g><g><path d="m60.33 50.5 2.67 4h-8.85l-1.91-4z" fill="#545c66"/></g><g><path d="m32 46.5s.83-.73 2.09-2h.01 8.33l1.44 5h-23.74l1.44-5h8.33c1.27 1.27 2.1 2 2.1 2z" fill="#545c66"/></g><g><path d="m15.09 43.5-5.24 11h-8.85l7.33-11z" fill="#545c66"/></g><g><path d="m19.09 47.5-3.335 7h-5.905l5.24-11z" fill="#545c66"/></g><g><path d="m63 54.5v4h-62v-4h8.85 44.3z" fill="#545c66"/></g><g><path d="m57.67 46.5h-7.33-.01l-3.33-7h6z" fill="#545c66"/></g></g><g><g><path d="m34 13.51c0 1.101-.9 2-2 2-1.11 0-2-.899-2-2 0-1.109 2-3 2-3s2 1.89 2 3z" fill="#5d9cec"/></g><g><path d="m38 20.51v4h-12v-4c0-1.1.9-2 2-2h8c1.1 0 2 .9 2 2z" fill="#5d9cec"/></g><g><path d="m29 28.51v3h-4.01v-3h.01z" fill="#656d78"/></g><g><path d="m35 28.51h4v3h-4z" fill="#656d78"/></g><g><path d="m39 24.51v4h-4-6-4v-4h1 12z" fill="#ffce54"/></g></g></g><g><g><g><g><path d="m63 55.5h-62c-.369 0-.708-.203-.882-.528s-.154-.72.05-1.026l10-15c.305-.459.925-.584 1.387-.277.46.307.584.927.277 1.387l-8.964 13.444h58.264l-8.964-13.445c-.307-.46-.183-1.08.277-1.387.461-.307 1.08-.182 1.387.277l10 15c.204.307.224.701.05 1.026s-.513.529-.882.529z"/></g><g><path d="m63 59.5h-62c-.553 0-1-.447-1-1v-4c0-.553.447-1 1-1h62c.553 0 1 .447 1 1v4c0 .553-.447 1-1 1zm-61-2h60v-2h-60z"/></g><g><path d="m9.849 55.5c-.144 0-.29-.031-.43-.098-.498-.237-.71-.834-.472-1.333l5.243-11c.236-.497.83-.712 1.333-.472.498.237.71.834.472 1.333l-5.243 11c-.171.36-.529.57-.903.57z"/></g><g><path d="m20.134 50.5c-.092 0-.185-.013-.276-.039-.531-.152-.838-.706-.686-1.236l1.434-5c.151-.532.709-.836 1.236-.686.531.152.838.706.686 1.236l-1.434 5c-.125.44-.526.725-.96.725z"/></g><g><path d="m54.151 55.5c-.374 0-.732-.21-.903-.569l-1.908-4.002c-.238-.499-.026-1.096.472-1.333.503-.24 1.097-.026 1.333.472l1.908 4.002c.238.499.026 1.096-.472 1.333-.14.066-.286.097-.43.097z"/></g><g><path d="m50.335 47.495c-.374 0-.732-.21-.903-.569l-3.334-6.995c-.238-.499-.026-1.096.472-1.333.504-.24 1.097-.025 1.333.472l3.334 6.995c.238.499.026 1.096-.472 1.333-.14.066-.286.097-.43.097z"/></g><g><path d="m43.866 50.5c-.435 0-.834-.285-.96-.725l-1.434-5c-.152-.53.154-1.084.686-1.236.528-.149 1.084.153 1.236.686l1.434 5c.152.53-.154 1.084-.686 1.236-.091.026-.184.039-.276.039z"/></g><g><path d="m15.094 44.5h-6.761c-.553 0-1-.447-1-1s.447-1 1-1h6.761c.553 0 1 .447 1 1s-.448 1-1 1z"/></g><g><path d="m60.333 51.5h-8.089c-.553 0-1-.447-1-1s.447-1 1-1h8.089c.553 0 1 .447 1 1s-.447 1-1 1z"/></g><g><path d="m57.667 47.5h-7.33c-.553 0-1-.447-1-1s.447-1 1-1h7.33c.553 0 1 .447 1 1s-.447 1-1 1z"/></g><g><path d="m30 45.5h-8.434c-.553 0-1-.447-1-1s.447-1 1-1h8.434c.553 0 1 .447 1 1s-.447 1-1 1z"/></g><g><path d="m42.434 45.5h-8.341c-.553 0-1-.447-1-1s.447-1 1-1h8.341c.553 0 1 .447 1 1s-.448 1-1 1z"/></g><g><path d="m43.867 50.5h-23.734c-.553 0-1-.447-1-1s.447-1 1-1h23.734c.553 0 1 .447 1 1s-.447 1-1 1z"/></g><g><path d="m32 47.5c-.235 0-.471-.083-.659-.248-.626-.549-15.341-13.593-15.341-26.752 0-8.822 7.178-16 16-16s16 7.178 16 16c0 13.159-14.715 26.203-15.341 26.752-.188.165-.424.248-.659.248zm0-41c-7.72 0-14 6.28-14 14 0 10.734 11.144 21.944 14 24.641 2.856-2.696 14-13.906 14-24.641 0-7.72-6.28-14-14-14z"/></g><g><path d="m25.427 40.5h-14.427c-.553 0-1-.447-1-1s.447-1 1-1h14.427c.553 0 1 .447 1 1s-.448 1-1 1z"/></g><g><path d="m53 40.5h-14.428c-.553 0-1-.447-1-1s.447-1 1-1h14.428c.553 0 1 .447 1 1s-.447 1-1 1z"/></g></g></g><g><g><g><path d="m38.997 29.512h-14.002c-.553 0-1-.447-1-1v-4c0-.553.447-1 1-1h14.002c.553 0 1 .447 1 1v4c0 .552-.447 1-1 1zm-13.002-2h12.002v-2h-12.002z"/></g><g><path d="m28.995 32.512h-4.001c-.553 0-1-.447-1-1v-3c0-.553.447-1 1-1h4.001c.553 0 1 .447 1 1v3c0 .552-.447 1-1 1zm-3.001-2h2.001v-1h-2.001z"/></g><g><path d="m38.999 32.512h-4.001c-.553 0-1-.447-1-1v-3c0-.553.447-1 1-1h4.001c.553 0 1 .447 1 1v3c0 .552-.447 1-1 1zm-3.001-2h2.001v-1h-2.001z"/></g><g><path d="m37.998 21.51c-.553 0-1-.447-1-1 0-.552-.448-1-1-1h-8.003c-.552 0-1 .448-1 1 0 .553-.447 1-1 1s-1-.447-1-1c0-1.654 1.346-3 3-3h8.003c1.654 0 3 1.346 3 3 0 .553-.447 1-1 1z"/></g><g><path d="m25.995 25.512c-.553 0-1-.447-1-1v-4.002c0-.553.447-1 1-1s1 .447 1 1v4.002c0 .552-.447 1-1 1z"/></g><g><path d="m37.998 25.512c-.553 0-1-.447-1-1v-4.002c0-.553.447-1 1-1s1 .447 1 1v4.002c0 .552-.447 1-1 1z"/></g><g><path d="m28.025 27.512c-.553 0-1.005-.447-1.005-1s.442-1 .994-1h.011c.552 0 1 .447 1 1s-.448 1-1 1z"/></g><g><path d="m36.028 27.512c-.553 0-1.005-.447-1.005-1s.442-1 .994-1h.011c.552 0 1 .447 1 1s-.448 1-1 1z"/></g></g><g><path d="m31.996 16.507c-1.654 0-3-1.346-3-3 0-1.424 1.77-3.212 2.312-3.727.387-.365.99-.365 1.377 0 .542.515 2.312 2.303 2.312 3.727-.001 1.654-1.347 3-3.001 3zm0-4.552c-.558.645-.987 1.293-1 1.554 0 .55.448.998 1 .998s1-.448 1-1c-.013-.26-.442-.907-1-1.552z"/></g></g></g></svg>