<svg id="Layer_3" enable-background="new 0 0 64 64" height="512" viewBox="0 0 64 64" width="512" xmlns="http://www.w3.org/2000/svg"><circle cx="17" cy="53" fill="#f4b2b0" r="3"/><circle cx="47" cy="53" fill="#f4b2b0" r="3"/><g fill="#b3404a"><path d="m1 61v2h62v-2h-16-30z"/><path d="m17 49c-2.206 0-4 1.794-4 4s1.794 4 4 4 4-1.794 4-4-1.794-4-4-4zm0 6c-1.103 0-2-.897-2-2s.897-2 2-2 2 .897 2 2-.897 2-2 2z"/><path d="m47 49c-2.206 0-4 1.794-4 4s1.794 4 4 4 4-1.794 4-4-1.794-4-4-4zm0 6c-1.103 0-2-.897-2-2s.897-2 2-2 2 .897 2 2-.897 2-2 2z"/><path d="m32 41h4v2h-4z"/><path d="m46 41h4v2h-4z"/><path d="m49.707 11.293c-.187-.188-.442-.293-.707-.293h-5v-5c0-.553-.448-1-1-1h-4c-.552 0-1 .447-1 1v5.424c-1.763.774-3 2.531-3 4.576v12c0 1.654 1.346 3 3 3h14c1.654 0 3-1.346 3-3v-11c0-.266-.105-.52-.293-.707zm-9.707-4.293h2v4h-2zm13 21c0 .552-.449 1-1 1h-14c-.551 0-1-.448-1-1v-12c0-1.654 1.346-3 3-3h8.586l4.414 4.414z"/><path d="m47 15h-2c-.552 0-1 .447-1 1v7c0 .553.448 1 1 1h5c.552 0 1-.447 1-1v-4c0-.266-.105-.52-.293-.707l-3-3c-.187-.188-.442-.293-.707-.293zm2 7h-3v-5h.586l2.414 2.414z"/><path d="m63 19c0-9.925-8.075-18-18-18s-18 8.075-18 18c0 1.435.187 2.823.505 4.162-1.618.341-3.072 1.235-4.099 2.57l-7.48 9.723-13.195-14.138-1.462 1.365 6.494 6.958-2.617 8.719c-2.43.798-4.146 3.084-4.146 5.683v6.958c0 1.654 1.346 3 3 3h5.069c.495 3.94 3.859 7 7.931 7s7.436-3.06 7.931-7h14.139c.495 3.94 3.859 7 7.931 7s7.436-3.06 7.931-7h5.068c1.654 0 3-1.346 3-3v-10c0-.379-.214-.725-.553-.895l-7.794-3.897-1.07-1.39c5.605-3.054 9.417-8.999 9.417-15.818zm-48.935 17.392-6.669 1.429 1.947-6.488zm-11.061 7.608h1.996v2h-2v-1.958c0-.014.004-.028.004-.042zm13.996 15c-3.309 0-6-2.691-6-6s2.691-6 6-6 6 2.691 6 6-2.691 6-6 6zm30 0c-3.309 0-6-2.691-6-6s2.691-6 6-6 6 2.691 6 6-2.691 6-6 6zm14-11h-2v-7.382l2 1zm-7.792-10.391c.092.12.21.218.345.285l3.447 1.724v9.382c0 .553.448 1 1 1h3v1c0 .552-.449 1-1 1h-5.069c-.495-3.94-3.859-7-7.931-7s-7.436 3.06-7.931 7h-14.138c-.495-3.94-3.859-7-7.931-7s-7.436 3.06-7.931 7h-5.069c-.551 0-1-.448-1-1v-3h3c.552 0 1-.447 1-1v-4c0-.553-.448-1-1-1h-2.425c.557-.93 1.477-1.631 2.587-1.869l10.048-2.153c.232-.05.438-.18.583-.368l8.199-10.658c.768-.998 1.869-1.653 3.089-1.869.245.678.526 1.337.846 1.975-1.058.171-2.017.757-2.642 1.649l-6.104 8.721c-.214.306-.24.704-.068 1.035.172.33.514.537.887.537h28c.373 0 .715-.207.887-.538s.146-.729-.067-1.035l-.653-.933c.879-.21 1.736-.477 2.56-.81zm-6.211-.727.083.118h-2.08-9v-2.436c2.651 1.54 5.72 2.436 9 2.436.676 0 1.341-.045 1.997-.118zm-12.997.118h-11.08l5.003-7.147c.374-.535.987-.853 1.639-.853h.482c1.081 1.612 2.425 3.029 3.956 4.216zm11-2c-8.822 0-16-7.178-16-16s7.178-16 16-16 16 7.178 16 16-7.178 16-16 16z"/><path d="m15 21v-1c0-.155-.036-.309-.105-.447l-3-6c-.339-.678-1.45-.678-1.789 0l-3 6c-.07.138-.106.292-.106.447v1c0 2.206 1.794 4 4 4s4-1.794 4-4zm-6 0v-.764l2-4 2 4v.764c0 1.103-.897 2-2 2s-2-.897-2-2z"/></g></svg>