<svg id="icons" enable-background="new 0 0 64 64" height="512" viewBox="0 0 64 64" width="512" xmlns="http://www.w3.org/2000/svg"><g><g><g><path d="m62.001 43.004c-.553 0-1-.447-1-1 0-2.454-1.753-4.527-4.168-4.931-.544-.091-.912-.606-.821-1.151.091-.544.604-.916 1.151-.821 3.383.565 5.838 3.468 5.838 6.903 0 .553-.447 1-1 1z"/></g><g><path d="m62.001 45.002c-.553 0-1-.447-1-1v-1.998c0-.553.447-1 1-1s1 .447 1 1v1.998c0 .553-.447 1-1 1z"/></g><g><path d="m63 50.002c-.553 0-1-.447-1-1v-4h-1c-.553 0-1-.447-1-1s.447-1 1-1h2c.553 0 1 .447 1 1v5c0 .553-.447 1-1 1z"/></g><g><path d="m44.173 50.002h-24.347c-.553 0-1-.447-1-1s.447-1 1-1h24.347c.553 0 1 .447 1 1s-.447 1-1 1z"/></g><g><path d="m5.003 50.002c-.208 0-.419-.065-.599-.2l-4.004-3c-.442-.331-.532-.957-.2-1.399.33-.44.956-.532 1.399-.2l4.004 3c.442.331.532.957.2 1.399-.196.261-.495.4-.8.4z"/></g><g><path d="m1 47.002c-.553 0-1-.447-1-1v-12.004c0-.553.447-1 1-1s1 .447 1 1v12.004c0 .553-.447 1-1 1z"/></g><g><path d="m6.002 34.998h-5.002c-.553 0-1-.447-1-1s.447-1 1-1h5.002c.553 0 1 .447 1 1s-.447 1-1 1z"/></g><g><path d="m46.001 35.999c-.235 0-.473-.083-.663-.252-.087-.078-8.862-7.751-19.343-7.751-10.539 0-19.291 6.723-19.379 6.791-.437.338-1.063.261-1.403-.175-.339-.436-.261-1.063.175-1.403.378-.294 9.388-7.213 20.607-7.213 11.256 0 20.292 7.919 20.671 8.256.413.366.45.998.083 1.411-.197.222-.472.336-.748.336z"/></g><g><path d="m57.002 37.087c-.032 0-.065-.002-.099-.005l-10.999-1.084c-.55-.054-.952-.544-.897-1.093s.534-.946 1.093-.897l10.999 1.084c.55.054.952.544.897 1.093-.051.516-.485.902-.994.902z"/></g><g><path d="m46.002 35.999h-21.998c-.553 0-1-.447-1-1s.447-1 1-1h21.998c.553 0 1 .447 1 1s-.447 1-1 1z"/></g><g><path d="m24.003 35.999c-.139 0-.28-.029-.415-.091l-11.002-5.026c-.502-.229-.723-.823-.493-1.325s.82-.724 1.325-.494l11.002 5.027c.502.229.723.822.493 1.325-.168.367-.53.584-.91.584z"/></g><g><path d="m24.004 35.999c-.553 0-1-.447-1-1v-7.918c0-.552.447-1 1-1s1 .448 1 1v7.918c0 .553-.447 1-1 1z"/></g><g><path d="m13.5 55.002c-4.136 0-7.5-3.364-7.5-7.5s3.364-7.5 7.5-7.5 7.5 3.364 7.5 7.5-3.364 7.5-7.5 7.5zm0-13c-3.032 0-5.5 2.468-5.5 5.5s2.468 5.5 5.5 5.5 5.5-2.468 5.5-5.5-2.468-5.5-5.5-5.5z"/></g><g><path d="m13.5 51.002c-1.93 0-3.5-1.57-3.5-3.5s1.57-3.5 3.5-3.5 3.5 1.57 3.5 3.5-1.57 3.5-3.5 3.5zm0-5c-.827 0-1.5.673-1.5 1.5s.673 1.5 1.5 1.5 1.5-.673 1.5-1.5-.673-1.5-1.5-1.5z"/></g><g><path d="m50.499 55.002c-4.136 0-7.5-3.364-7.5-7.5s3.364-7.5 7.5-7.5 7.5 3.364 7.5 7.5-3.364 7.5-7.5 7.5zm0-13c-3.032 0-5.5 2.468-5.5 5.5s2.468 5.5 5.5 5.5 5.5-2.468 5.5-5.5-2.468-5.5-5.5-5.5z"/></g><g><path d="m50.495 51.002c-1.93 0-3.5-1.57-3.5-3.5s1.57-3.5 3.5-3.5 3.5 1.57 3.5 3.5-1.57 3.5-3.5 3.5zm0-5c-.827 0-1.5.673-1.5 1.5s.673 1.5 1.5 1.5 1.5-.673 1.5-1.5-.673-1.5-1.5-1.5z"/></g><g><path d="m7.175 50.002h-2.171c-.553 0-1-.447-1-1s.447-1 1-1h2.171c.553 0 1 .447 1 1s-.447 1-1 1z"/></g><g><path d="m63 50.002h-6.176c-.553 0-1-.447-1-1s.447-1 1-1h6.176c.553 0 1 .447 1 1s-.447 1-1 1z"/></g></g><g><g><g><path d="m30.002 22.998c-3.859 0-7-3.14-7-7s3.141-7 7-7c2.49 0 4.813 1.34 6.061 3.497.277.478.113 1.09-.364 1.367-.48.274-1.091.112-1.366-.365-.893-1.542-2.552-2.499-4.33-2.499-2.757 0-5 2.243-5 5s2.243 5 5 5c1.779 0 3.438-.958 4.331-2.5.274-.479.885-.644 1.366-.365.478.277.642.888.364 1.366-1.249 2.159-3.571 3.499-6.062 3.499z"/></g><g><path d="m30.002 19.998c-2.206 0-4-1.794-4-4s1.794-4 4-4c.553 0 1 .448 1 1s-.447 1-1 1c-1.103 0-2 .897-2 2s.897 2 2 2c.553 0 1 .448 1 1s-.447 1-1 1z"/></g><g><path d="m38.001 19.998h-7.999c-.553 0-1-.448-1-1s.447-1 1-1h7.999c.553 0 1 .448 1 1s-.447 1-1 1z"/></g><g><path d="m38.001 13.998h-7.999c-.553 0-1-.448-1-1s.447-1 1-1h7.999c.553 0 1 .448 1 1s-.447 1-1 1z"/></g><g><path d="m38.001 19.998c-.553 0-1-.448-1-1v-6c0-.552.447-1 1-1s1 .448 1 1v6c0 .552-.447 1-1 1z"/></g><g><path d="m44.001 18.998h-6c-.553 0-1-.448-1-1v-4c0-.552.447-1 1-1h6c.553 0 1 .448 1 1v4c0 .552-.447 1-1 1zm-5-2h4v-2h-4z"/></g></g><g><path d="m49 16.998h-4.999c-.553 0-1-.448-1-1s.447-1 1-1h4.999c.553 0 1 .448 1 1s-.447 1-1 1z"/></g><g><path d="m51 18.998c-.553 0-1-.448-1-1 0-.551-.448-1-1-1-.553 0-1-.448-1-1s.447-1 1-1c1.654 0 3 1.346 3 3 0 .552-.447 1-1 1z"/></g><g><path d="m53 30.004c-1.654 0-3-1.346-3-3.001 0-.552.447-1 1-1s1 .448 1 1 .448 1.001 1 1.001 1-.449 1-1.001.447-1 1-1 1 .448 1 1c0 1.655-1.346 3.001-3 3.001z"/></g><g><path d="m61 30.004c-1.654 0-3-1.346-3-3.001 0-.552.447-1 1-1s1 .448 1 1 .448 1.001 1 1.001c.553 0 1 .448 1 1s-.447 1-1 1z"/></g><g><path d="m59.001 18.995c-.553 0-1-.448-1-1 0-.551-.448-1-1-1s-1 .449-1 1c0 .552-.447 1-1 1s-1-.448-1-1c0-1.654 1.346-3 3-3s3 1.346 3 3c0 .552-.447 1-1 1z"/></g><g><path d="m51 28.003c-.553 0-1-.448-1-1v-9.005c0-.552.447-1 1-1s1 .448 1 1v9.005c0 .552-.447 1-1 1z"/></g><g><path d="m55 28.003c-.553 0-1-.448-1-1v-9.008c0-.552.447-1 1-1s1 .448 1 1v9.008c0 .552-.447 1-1 1z"/></g><g><path d="m59.001 28.003c-.553 0-1-.448-1-1v-9.008c0-.552.447-1 1-1s1 .448 1 1v9.008c0 .552-.447 1-1 1z"/></g><g><path d="m63 30.004h-2c-.553 0-1-.448-1-1s.447-1 1-1h2c.553 0 1 .448 1 1s-.447 1-1 1z"/></g></g><g><g><path d="m17.014 18.991c-.553 0-1-.448-1-1v-3.998c0-.552.447-1 1-1s1 .448 1 1v3.998c0 .552-.448 1-1 1z"/></g><g><path d="m18.014 16.993h-2c-.553 0-1-.448-1-1s.447-1 1-1h2c.553 0 1 .448 1 1s-.448 1-1 1z"/></g></g><g><path d="m13.03 22c-.553 0-1.005-.448-1.005-1s.442-1 .994-1h.011c.552 0 1 .448 1 1s-.448 1-1 1z"/></g><g><path d="m19.031 23.998c-.553 0-1.005-.448-1.005-1s.442-1 .994-1h.011c.552 0 1 .448 1 1s-.448 1-1 1z"/></g></g></svg>