<svg id="Layer_3" enable-background="new 0 0 64 64" height="512" viewBox="0 0 64 64" width="512" xmlns="http://www.w3.org/2000/svg"><path d="m52 55v-9c1.304-1.956 2-4.255 2-6.606 0-2.92-.338-5.83-1.007-8.672l-2.268-9.639c-.425-1.806-2.037-3.083-3.893-3.083h-1.387c-.693-1.191-1.968-2-3.445-2h-20c-1.477 0-2.752.809-3.445 2h-1.387c-1.856 0-3.469 1.277-3.894 3.084l-2.268 9.639c-.668 2.842-1.006 5.752-1.006 8.671 0 2.351.696 4.649 2 6.606v9" fill="#2d4d83"/><path d="m46 22.5c0-1.599-.231-3.153-.653-4.647-.71-1.107-1.933-1.853-3.347-1.853h-20c-1.477 0-2.752.809-3.445 2h-1.387c-1.856 0-3.469 1.277-3.894 3.084l-2.268 9.639c-.668 2.842-1.006 5.752-1.006 8.671 0 .525.04 1.046.108 1.562 3.293 1.309 6.987 2.044 10.892 2.044 13.807 0 25-9.178 25-20.5z" fill="#4472b2"/><path d="m46 60v-7c-2.596-1.947-5.754-3-9-3h-10c-3.246 0-6.404 1.053-9 3v7" fill="#3d98f7"/><path d="m40 58h2c2.209 0 4-1.791 4-4v-2c0-3.375 2.787-6.099 6.185-5.997 3.283.098 5.815 2.963 5.815 6.249v2.586c0 .77-.124 1.535-.368 2.265-.974 2.924-3.711 4.897-6.794 4.897h-37.676c-3.083 0-5.82-1.973-6.795-4.897-.243-.731-.367-1.495-.367-2.265v-2.586c0-3.285 2.532-6.15 5.815-6.249 3.398-.102 6.185 2.622 6.185 5.997v2c0 2.209 1.791 4 4 4h2" fill="#4472b2"/><path d="m40 12h-16c-1.105 0-2-.895-2-2v-6c0-1.105.895-2 2-2h16c1.105 0 2 .895 2 2v6c0 1.105-.895 2-2 2z" fill="#4d5d7a"/><path d="m52 7c2.761 0 5 2.239 5 5 0-2.761 2.239-5 5-5-2.761 0-5-2.239-5-5 0 2.761-2.239 5-5 5z" fill="#8bd2f5"/><path d="m2 16c2.761 0 5 2.239 5 5 0-2.761 2.239-5 5-5-2.761 0-5-2.239-5-5 0 2.761-2.239 5-5 5z" fill="#8bd2f5"/><path d="m50.838 63h-37.676c-3.519 0-6.63-2.243-7.743-5.581-.278-.835-.419-1.703-.419-2.581v-2.586c0-3.885 3.044-7.136 6.785-7.249 1.932-.038 3.719.645 5.089 1.973 1.371 1.33 2.126 3.114 2.126 5.024v2c0 1.654 1.346 3 3 3h2v2h-2c-2.757 0-5-2.243-5-5v-2c0-1.364-.539-2.639-1.519-3.589-.979-.949-2.273-1.453-3.636-1.408-2.671.08-4.845 2.435-4.845 5.249v2.586c0 .663.106 1.319.316 1.949.84 2.52 3.19 4.213 5.846 4.213h37.676c2.656 0 5.006-1.693 5.847-4.214.209-.629.315-1.285.315-1.948v-2.586c0-2.814-2.174-5.169-4.846-5.249-1.356-.043-2.657.459-3.636 1.408-.979.95-1.518 2.225-1.518 3.589v2c0 2.757-2.243 5-5 5h-2v-2h2c1.654 0 3-1.346 3-3v-2c0-1.91.755-3.694 2.126-5.024 1.37-1.33 3.185-2.024 5.089-1.973 3.741.113 6.785 3.364 6.785 7.249v2.586c0 .878-.141 1.746-.418 2.58-1.114 3.339-4.226 5.582-7.744 5.582z"/><path d="m40 13h-16c-1.654 0-3-1.346-3-3v-6c0-1.654 1.346-3 3-3h16c1.654 0 3 1.346 3 3v6c0 1.654-1.346 3-3 3zm-16-10c-.552 0-1 .448-1 1v6c0 .552.448 1 1 1h16c.552 0 1-.448 1-1v-6c0-.552-.448-1-1-1z"/><path d="m11.168 46.555c-1.418-2.128-2.168-4.604-2.168-7.16 0-2.993.348-5.988 1.033-8.901l2.268-9.639c.534-2.27 2.535-3.855 4.867-3.855h1.832v2h-1.832c-1.399 0-2.6.951-2.92 2.312l-2.268 9.639c-.65 2.764-.98 5.605-.98 8.444 0 2.16.634 4.253 1.832 6.051z"/><path d="m47 25h-2v-5c0-1.654-1.346-3-3-3h-20c-1.654 0-3 1.346-3 3v5h-2v-5c0-2.757 2.243-5 5-5h20c2.757 0 5 2.243 5 5z"/><path d="m52.832 46.555-1.664-1.109c1.198-1.799 1.832-3.891 1.832-6.051 0-2.839-.33-5.68-.98-8.442l-2.268-9.639c-.32-1.363-1.521-2.314-2.92-2.314h-1.832v-2h1.832c2.332 0 4.333 1.585 4.867 3.855l2.268 9.638c.685 2.913 1.033 5.908 1.033 8.902 0 2.556-.75 5.032-2.168 7.16z"/><path d="m45.4 53.8c-2.408-1.806-5.391-2.8-8.4-2.8h-10c-3.009 0-5.992.994-8.4 2.8l-1.2-1.6c2.751-2.063 6.161-3.2 9.6-3.2h10c3.438 0 6.849 1.137 9.6 3.2z"/><path d="m23.986 51.164-1.973-.328c.655-3.925.987-7.935.987-11.919v-19.917h2v19.917c0 4.095-.341 8.215-1.014 12.247z"/><path d="m40.014 51.164c-.673-4.032-1.014-8.152-1.014-12.247v-19.917h2v19.917c0 3.984.332 7.994.986 11.919z"/><path d="m25 12h2v4h-2z"/><path d="m37 12h2v4h-2z"/><path d="m57 13c-.553 0-1-.447-1-1 0-2.206-1.794-4-4-4-.553 0-1-.447-1-1s.447-1 1-1c2.206 0 4-1.794 4-4 0-.553.447-1 1-1s1 .447 1 1c0 2.206 1.794 4 4 4 .553 0 1 .447 1 1s-.447 1-1 1c-2.206 0-4 1.794-4 4 0 .553-.447 1-1 1zm-1.687-6c.668.444 1.243 1.019 1.687 1.687.444-.668 1.019-1.243 1.687-1.687-.668-.444-1.243-1.019-1.687-1.687-.444.668-1.019 1.243-1.687 1.687z"/><path d="m7 22c-.553 0-1-.447-1-1 0-2.206-1.794-4-4-4-.553 0-1-.447-1-1s.447-1 1-1c2.206 0 4-1.794 4-4 0-.553.447-1 1-1s1 .447 1 1c0 2.206 1.794 4 4 4 .553 0 1 .447 1 1s-.447 1-1 1c-2.206 0-4 1.794-4 4 0 .553-.447 1-1 1zm-1.687-6c.668.444 1.243 1.019 1.687 1.687.444-.668 1.019-1.243 1.687-1.687-.668-.444-1.243-1.019-1.687-1.687-.444.668-1.019 1.243-1.687 1.687z"/></svg>